<svg width="24" height="24" viewBox="0 0 24 24" fill="none" xmlns="http://www.w3.org/2000/svg">
<path d="M19.25 12.25C19.25 16.2541 16.0041 19.5 12 19.5C7.99594 19.5 4.75 16.2541 4.75 12.25C4.75 8.24594 7.99594 5 12 5C16.0041 5 19.25 8.24594 19.25 12.25Z" stroke="#1F1F1F" stroke-width="1.5" stroke-linecap="round" stroke-linejoin="round"/>
<path d="M12 14.25C11.5858 14.25 11.25 14.5858 11.25 15C11.25 15.4142 11.5858 15.75 12 15.75V14.25ZM12.01 15.75C12.4242 15.75 12.76 15.4142 12.76 15C12.76 14.5858 12.4242 14.25 12.01 14.25V15.75ZM12 15.75H12.01V14.25H12V15.75Z" fill="#1F1F1F"/>
<path d="M12 8.75V12.25" stroke="#1F1F1F" stroke-width="1.5" stroke-linecap="round" stroke-linejoin="round"/>
</svg>
