<svg width="24" height="24" viewBox="0 0 24 24" fill="none" xmlns="http://www.w3.org/2000/svg">
<path d="M16.75 4.75H18.25C18.5152 4.75 18.7696 4.85536 18.9571 5.04289C19.1446 5.23043 19.25 5.48478 19.25 5.75V8.25M16.75 4.75H7.75C6.95435 4.75 6.19129 5.06607 5.62868 5.62868C5.06607 6.19129 4.75 6.95435 4.75 7.75V16.25C4.75 17.0456 5.06607 17.8087 5.62868 18.3713C6.19129 18.9339 6.95435 19.25 7.75 19.25H16.75M16.75 4.75V8.25M19.25 8.25H16.75M19.25 8.25V12M16.75 19.25H18.25C18.5152 19.25 18.7696 19.1446 18.9571 18.9571C19.1446 18.7696 19.25 18.5152 19.25 18.25V15.75M16.75 19.25V15.75M16.75 8.25V12M19.25 15.75H16.75M19.25 15.75V12M16.75 15.75V12M16.75 12H19.25M8.75 15.25C8.75 15.25 9.425 13.75 11 13.75C12.575 13.75 13.25 15.25 13.25 15.25M12.25 10C12.25 10.3315 12.1183 10.6495 11.8839 10.8839C11.6495 11.1183 11.3315 11.25 11 11.25C10.6685 11.25 10.3505 11.1183 10.1161 10.8839C9.8817 10.6495 9.75 10.3315 9.75 10C9.75 9.66848 9.8817 9.35054 10.1161 9.11612C10.3505 8.8817 10.6685 8.75 11 8.75C11.3315 8.75 11.6495 8.8817 11.8839 9.11612C12.1183 9.35054 12.25 9.66848 12.25 10Z" stroke="#1F1F1F" stroke-width="1.5" stroke-linecap="round" stroke-linejoin="round"/>
</svg>
