<svg width="20" height="20" viewBox="0 0 20 20" fill="none" xmlns="http://www.w3.org/2000/svg">
<path d="M9.37492 16.0417H5.62492C4.70444 16.0417 3.95825 15.2955 3.95825 14.375V13.3333M3.95825 13.3333V5.62501C3.95825 4.70454 4.70444 3.95834 5.62492 3.95834H14.3749C15.2954 3.95834 16.0416 4.70454 16.0416 5.62501V10.2083L13.8213 7.86624C13.1385 7.07152 11.9012 7.09666 11.251 7.91682L11.2428 7.92746C11.1647 8.02846 9.96834 9.57576 9.10467 10.6745M3.95825 13.3333L6.24674 10.4223C6.89567 9.59676 8.13703 9.56976 8.82125 10.3663L9.10467 10.6745M9.10467 10.6745L10.2083 11.875M9.10467 10.6745C9.10167 10.6783 9.09875 10.6821 9.09575 10.6858" stroke="#1F1F1F" stroke-width="1.3" stroke-linecap="round" stroke-linejoin="round"/>
<path d="M14.1667 12.2917V16.0417" stroke="#1F1F1F" stroke-width="1.3" stroke-linecap="round" stroke-linejoin="round"/>
<path d="M16.0417 14.1667H12.2917" stroke="#1F1F1F" stroke-width="1.5" stroke-linecap="round" stroke-linejoin="round"/>
</svg>
